<?xml version="1.0" encoding="UTF-8"?>
<!-- Created with Inkscape (http://www.inkscape.org/) -->
<svg id="svg2421" width="40" height="40" version="1.1" viewBox="0 0 10.583 10.583" xmlns="http://www.w3.org/2000/svg">
 <g id="layer1">
  <path id="path2477" d="m5.2917 0a5.2917 5.2917 0 0 0-5.2917 5.2917 5.2917 5.2917 0 0 0 5.2917 5.2917 5.2917 5.2917 0 0 0 5.2917-5.2917 5.2917 5.2917 0 0 0-5.2917-5.2917zm0 0.66146a4.6302 4.6302 0 0 1 4.6302 4.6302 4.6302 4.6302 0 0 1-4.6302 4.6302 4.6302 4.6302 0 0 1-4.6302-4.6302 4.6302 4.6302 0 0 1 4.6302-4.6302z" fill="#fff" stroke-width=".35504"/>
  <g id="text3068" fill="#181715" stroke-width=".35534" aria-label="w">
   <path id="path698" d="m2.4342 2.3813h0.84666l0.51858 3.9899q0.021167 0.1905 0.042333 0.42333 0.021167 0.23283 0.042333 0.43392 0.021167 0.23283 0.042333 0.46567h0.11642q0.021167-0.23283 0.052916-0.46567 0.021167-0.20108 0.052917-0.43392t0.0635-0.42333l0.61383-3.9899h0.91016l0.61383 3.9899q0.03175 0.20108 0.0635 0.43392t0.052917 0.43392q0.03175 0.23283 0.052917 0.45508h0.127q0.021167-0.23283 0.042333-0.46567 0.021167-0.20108 0.052916-0.42333 0.03175-0.23283 0.052917-0.43392l0.52916-3.9899h0.8255l-0.8255 5.8208h-1.3017l-0.60325-4.1169q-0.021167-0.17992-0.042333-0.37042-0.010583-0.20108-0.021167-0.37042 0-0.1905 0-0.381h-0.13758q0 0.1905-0.010583 0.381-0.010583 0.16933-0.021167 0.37042-0.010583 0.1905-0.042333 0.37042l-0.62441 4.1169h-1.27z" fill="#fff"/>
  </g>
 </g>
</svg>